<svg width="1897" height="1920" viewBox="0 0 1897 1920" fill="none" xmlns="http://www.w3.org/2000/svg">
<path fill-rule="evenodd" clip-rule="evenodd" d="M1094.96 268.845L1094.03 268.635C1118.93 192.229 1205.48 95.6729 1325.12 41.8848C1385.82 14.5953 1457 -2.57326 1534.67 0.83832C1612.88 4.27302 1693.87 28.4173 1773.36 78.958L1772.57 79.7036L1773.39 79.9862C1746.93 206.806 1621.94 295.206 1488.12 333.216C1420.71 352.362 1347.97 359.686 1279.99 351.25C1212.29 342.851 1144.21 317.921 1094.96 268.845ZM714.157 309.419C548.911 276.001 362.428 328.931 242.737 534.156L242.751 534.163C106.442 781.227 141.587 1230.45 540.793 1742.12C1122.45 1787.6 1493.26 1622.19 1667.79 1309.66L1667.44 1309.47C1798.53 1074.47 1696.76 799.646 1485.55 684.507C1406.14 646.906 1330.47 629.741 1260.4 629.421C1229.82 629.823 1198.32 633.125 1166.07 639.626C1088.81 657.159 1020.81 696.483 965.223 751.415C838.417 876.73 766.509 1093.8 814.276 1351.19L814.191 1351.21C817.318 1368.78 814.955 1387.49 806.225 1404.62C784.913 1446.45 733.728 1463.08 691.9 1441.77C666.066 1428.6 649.843 1404.04 646.236 1377.33C591.798 1076.36 673.078 801.118 845.728 630.498C895.35 581.458 951.737 541.9 1013.23 513.229C956.013 414.494 845.169 335.913 714.157 309.419ZM1775.79 1369.91L1815.9 1392.29C2058.24 957.86 1720.05 426.632 1224.14 460.422C1209.23 461.267 1194.47 462.667 1179.87 464.608C1101.26 298.242 930.555 179.739 747.854 142.792C515.665 95.8359 251.357 176.448 92.3783 454.588L92.4741 454.642C-95.5154 798.943 -6.09191 1346.85 452.594 1903.85L453.971 1902.72L453.747 1904.87C1106.66 1972.69 1586.95 1803.14 1816.24 1392.5L1775.79 1369.91Z" fill="#FA9C9C"/>
</svg>
